<mxfile host="65bd71144e">
    <diagram id="b8jwlTlRPKJ8Pb3nJLvP" name="Page-1">
        <mxGraphModel dx="546" dy="1770" grid="1" gridSize="10" guides="1" tooltips="1" connect="1" arrows="1" fold="1" page="1" pageScale="1" pageWidth="827" pageHeight="1169" background="none" math="0" shadow="0">
            <root>
                <mxCell id="0"/>
                <mxCell id="1" parent="0"/>
                <mxCell id="40" value="" style="edgeStyle=none;html=1;exitX=0;exitY=0.5;exitDx=0;exitDy=0;entryX=1;entryY=0.25;entryDx=0;entryDy=0;rounded=0;" edge="1" parent="1" source="37" target="10">
                    <mxGeometry relative="1" as="geometry"/>
                </mxCell>
                <mxCell id="48" value="pub:hasDomain" style="edgeLabel;html=1;align=center;verticalAlign=middle;resizable=0;points=[];rounded=0;" vertex="1" connectable="0" parent="40">
                    <mxGeometry x="0.1292" relative="1" as="geometry">
                        <mxPoint x="8" as="offset"/>
                    </mxGeometry>
                </mxCell>
                <mxCell id="41" value="" style="edgeStyle=none;html=1;exitX=0.002;exitY=0.055;exitDx=0;exitDy=0;exitPerimeter=0;entryX=1;entryY=0.25;entryDx=0;entryDy=0;rounded=0;" edge="1" parent="1" source="2" target="38">
                    <mxGeometry relative="1" as="geometry"/>
                </mxCell>
                <mxCell id="47" value="pub:hasKeyword" style="edgeLabel;html=1;align=center;verticalAlign=middle;resizable=0;points=[];rounded=0;" vertex="1" connectable="0" parent="41">
                    <mxGeometry x="0.2247" y="3" relative="1" as="geometry">
                        <mxPoint x="13" y="-8" as="offset"/>
                    </mxGeometry>
                </mxCell>
                <mxCell id="42" value="" style="edgeStyle=none;html=1;entryX=1;entryY=0.25;entryDx=0;entryDy=0;exitX=-0.004;exitY=0.245;exitDx=0;exitDy=0;exitPerimeter=0;rounded=0;" edge="1" parent="1" source="32" target="14">
                    <mxGeometry relative="1" as="geometry"/>
                </mxCell>
                <mxCell id="49" value="pub:hasAuthor" style="edgeLabel;html=1;align=center;verticalAlign=middle;resizable=0;points=[];rounded=0;" vertex="1" connectable="0" parent="42">
                    <mxGeometry x="0.0677" y="3" relative="1" as="geometry">
                        <mxPoint x="4" y="-8" as="offset"/>
                    </mxGeometry>
                </mxCell>
                <mxCell id="44" value="" style="edgeStyle=none;html=1;exitX=1;exitY=0.5;exitDx=0;exitDy=0;entryX=0;entryY=0.25;entryDx=0;entryDy=0;rounded=0;" edge="1" parent="1" source="37" target="25">
                    <mxGeometry relative="1" as="geometry"/>
                </mxCell>
                <mxCell id="51" value="pub:hasAffiliation" style="edgeLabel;html=1;align=center;verticalAlign=middle;resizable=0;points=[];rounded=0;" vertex="1" connectable="0" parent="44">
                    <mxGeometry x="-0.0988" y="-1" relative="1" as="geometry">
                        <mxPoint x="8" y="-7" as="offset"/>
                    </mxGeometry>
                </mxCell>
                <mxCell id="2" value="pub:Publication" style="swimlane;fontStyle=0;childLayout=stackLayout;horizontal=1;startSize=30;horizontalStack=0;resizeParent=1;resizeParentMax=0;resizeLast=0;collapsible=1;marginBottom=0;whiteSpace=wrap;html=1;rounded=0;fillColor=#14c9c0;fontColor=#333333;strokeColor=#666666;" vertex="1" parent="1">
                    <mxGeometry x="280" y="-320" width="190" height="270" as="geometry"/>
                </mxCell>
                <mxCell id="3" value="pub:doi:string" style="text;strokeColor=none;fillColor=default;align=left;verticalAlign=middle;spacingLeft=4;spacingRight=4;overflow=hidden;points=[[0,0.5],[1,0.5]];portConstraint=eastwest;rotatable=0;whiteSpace=wrap;html=1;rounded=0;" vertex="1" parent="2">
                    <mxGeometry y="30" width="190" height="20" as="geometry"/>
                </mxCell>
                <mxCell id="4" value="pub:title:string" style="text;strokeColor=none;fillColor=default;align=left;verticalAlign=middle;spacingLeft=4;spacingRight=4;overflow=hidden;points=[[0,0.5],[1,0.5]];portConstraint=eastwest;rotatable=0;whiteSpace=wrap;html=1;rounded=0;" vertex="1" parent="2">
                    <mxGeometry y="50" width="190" height="20" as="geometry"/>
                </mxCell>
                <mxCell id="5" value="pub:publicationDate: dateTime" style="text;strokeColor=none;fillColor=default;align=left;verticalAlign=middle;spacingLeft=4;spacingRight=4;overflow=hidden;points=[[0,0.5],[1,0.5]];portConstraint=eastwest;rotatable=0;whiteSpace=wrap;html=1;rounded=0;" vertex="1" parent="2">
                    <mxGeometry y="70" width="190" height="20" as="geometry"/>
                </mxCell>
                <mxCell id="37" value="pub:organisation: string" style="text;strokeColor=none;fillColor=default;align=left;verticalAlign=middle;spacingLeft=4;spacingRight=4;overflow=hidden;points=[[0,0.5],[1,0.5]];portConstraint=eastwest;rotatable=0;whiteSpace=wrap;html=1;rounded=0;" vertex="1" parent="2">
                    <mxGeometry y="90" width="190" height="20" as="geometry"/>
                </mxCell>
                <mxCell id="28" value="pub:abstract: string" style="text;strokeColor=none;fillColor=default;align=left;verticalAlign=middle;spacingLeft=4;spacingRight=4;overflow=hidden;points=[[0,0.5],[1,0.5]];portConstraint=eastwest;rotatable=0;whiteSpace=wrap;html=1;rounded=0;" vertex="1" parent="2">
                    <mxGeometry y="110" width="190" height="20" as="geometry"/>
                </mxCell>
                <mxCell id="29" value="pub:introduction: string" style="text;strokeColor=none;fillColor=default;align=left;verticalAlign=middle;spacingLeft=4;spacingRight=4;overflow=hidden;points=[[0,0.5],[1,0.5]];portConstraint=eastwest;rotatable=0;whiteSpace=wrap;html=1;rounded=0;" vertex="1" parent="2">
                    <mxGeometry y="130" width="190" height="20" as="geometry"/>
                </mxCell>
                <mxCell id="30" value="pub:conclusion: string" style="text;strokeColor=none;fillColor=default;align=left;verticalAlign=middle;spacingLeft=4;spacingRight=4;overflow=hidden;points=[[0,0.5],[1,0.5]];portConstraint=eastwest;rotatable=0;whiteSpace=wrap;html=1;rounded=0;" vertex="1" parent="2">
                    <mxGeometry y="150" width="190" height="20" as="geometry"/>
                </mxCell>
                <mxCell id="31" value="pub:score: float" style="text;strokeColor=none;fillColor=default;align=left;verticalAlign=middle;spacingLeft=4;spacingRight=4;overflow=hidden;points=[[0,0.5],[1,0.5]];portConstraint=eastwest;rotatable=0;whiteSpace=wrap;html=1;rounded=0;" vertex="1" parent="2">
                    <mxGeometry y="170" width="190" height="20" as="geometry"/>
                </mxCell>
                <mxCell id="32" value="pub:matchScore: float" style="text;strokeColor=none;fillColor=default;align=left;verticalAlign=middle;spacingLeft=4;spacingRight=4;overflow=hidden;points=[[0,0.5],[1,0.5]];portConstraint=eastwest;rotatable=0;whiteSpace=wrap;html=1;rounded=0;" vertex="1" parent="2">
                    <mxGeometry y="190" width="190" height="20" as="geometry"/>
                </mxCell>
                <mxCell id="33" value="pub:publisher: string" style="text;strokeColor=none;fillColor=default;align=left;verticalAlign=middle;spacingLeft=4;spacingRight=4;overflow=hidden;points=[[0,0.5],[1,0.5]];portConstraint=eastwest;rotatable=0;whiteSpace=wrap;html=1;rounded=0;" vertex="1" parent="2">
                    <mxGeometry y="210" width="190" height="20" as="geometry"/>
                </mxCell>
                <mxCell id="34" value="pub:language: string" style="text;strokeColor=none;fillColor=default;align=left;verticalAlign=middle;spacingLeft=4;spacingRight=4;overflow=hidden;points=[[0,0.5],[1,0.5]];portConstraint=eastwest;rotatable=0;whiteSpace=wrap;html=1;rounded=0;" vertex="1" parent="2">
                    <mxGeometry y="230" width="190" height="20" as="geometry"/>
                </mxCell>
                <mxCell id="35" value="pub:pdfUrl: anyURI" style="text;strokeColor=none;fillColor=default;align=left;verticalAlign=middle;spacingLeft=4;spacingRight=4;overflow=hidden;points=[[0,0.5],[1,0.5]];portConstraint=eastwest;rotatable=0;whiteSpace=wrap;html=1;rounded=0;" vertex="1" parent="2">
                    <mxGeometry y="250" width="190" height="20" as="geometry"/>
                </mxCell>
                <mxCell id="10" value="pub:Domain" style="swimlane;fontStyle=0;childLayout=stackLayout;horizontal=1;startSize=30;horizontalStack=0;resizeParent=1;resizeParentMax=0;resizeLast=0;collapsible=1;marginBottom=0;whiteSpace=wrap;html=1;rounded=0;fillColor=#14c9c0;fontColor=#333333;strokeColor=#666666;" vertex="1" parent="1">
                    <mxGeometry x="20" y="-235" width="140" height="60" as="geometry"/>
                </mxCell>
                <mxCell id="11" value="pub:domain:string" style="text;strokeColor=none;fillColor=default;align=left;verticalAlign=middle;spacingLeft=4;spacingRight=4;overflow=hidden;points=[[0,0.5],[1,0.5]];portConstraint=eastwest;rotatable=0;whiteSpace=wrap;html=1;rounded=0;" vertex="1" parent="10">
                    <mxGeometry y="30" width="140" height="30" as="geometry"/>
                </mxCell>
                <mxCell id="14" value="pub:Author" style="swimlane;fontStyle=0;childLayout=stackLayout;horizontal=1;startSize=30;horizontalStack=0;resizeParent=1;resizeParentMax=0;resizeLast=0;collapsible=1;marginBottom=0;whiteSpace=wrap;html=1;rounded=0;fillColor=#14c9c0;fontColor=#333333;strokeColor=#666666;" vertex="1" parent="1">
                    <mxGeometry x="20" y="-140" width="140" height="60" as="geometry"/>
                </mxCell>
                <mxCell id="15" value="pub:author:string" style="text;strokeColor=none;fillColor=default;align=left;verticalAlign=middle;spacingLeft=4;spacingRight=4;overflow=hidden;points=[[0,0.5],[1,0.5]];portConstraint=eastwest;rotatable=0;whiteSpace=wrap;html=1;rounded=0;" vertex="1" parent="14">
                    <mxGeometry y="30" width="140" height="30" as="geometry"/>
                </mxCell>
                <mxCell id="18" value="pub:Topic" style="swimlane;fontStyle=0;childLayout=stackLayout;horizontal=1;startSize=30;horizontalStack=0;resizeParent=1;resizeParentMax=0;resizeLast=0;collapsible=1;marginBottom=0;whiteSpace=wrap;html=1;rounded=0;fillColor=#14c9c0;fontColor=#333333;strokeColor=#666666;" vertex="1" parent="1">
                    <mxGeometry x="610" y="-320" width="140" height="60" as="geometry"/>
                </mxCell>
                <mxCell id="19" value="pub:topic:string" style="text;strokeColor=none;fillColor=default;align=left;verticalAlign=middle;spacingLeft=4;spacingRight=4;overflow=hidden;points=[[0,0.5],[1,0.5]];portConstraint=eastwest;rotatable=0;whiteSpace=wrap;html=1;rounded=0;" vertex="1" parent="18">
                    <mxGeometry y="30" width="140" height="30" as="geometry"/>
                </mxCell>
                <mxCell id="22" value="&lt;b&gt;dc:creator: &lt;/b&gt;Olivér Angyal&lt;br&gt;&lt;b&gt;dc:title:&lt;/b&gt; The Publication Ontology" style="shape=document;whiteSpace=wrap;html=1;boundedLbl=1;rounded=0;" vertex="1" parent="1">
                    <mxGeometry x="110" y="-10" width="210" height="100" as="geometry"/>
                </mxCell>
                <mxCell id="24" value="&lt;b&gt;pub:&lt;/b&gt; https://auroral.iot.linkeddata.es/def/publication#&lt;br&gt;&lt;b&gt;dc:&lt;/b&gt; http://purl.org/dc/terms/" style="shape=note;whiteSpace=wrap;html=1;backgroundOutline=1;darkOpacity=0.05;rounded=0;" vertex="1" parent="1">
                    <mxGeometry x="340" y="-10" width="300" height="110" as="geometry"/>
                </mxCell>
                <mxCell id="25" value="pub:Affiliation" style="swimlane;fontStyle=0;childLayout=stackLayout;horizontal=1;startSize=30;horizontalStack=0;resizeParent=1;resizeParentMax=0;resizeLast=0;collapsible=1;marginBottom=0;whiteSpace=wrap;html=1;rounded=0;labelBackgroundColor=none;fillColor=#14c9c0;fontColor=#333333;strokeColor=#666666;" vertex="1" parent="1">
                    <mxGeometry x="610" y="-235" width="140" height="60" as="geometry"/>
                </mxCell>
                <mxCell id="26" value="pub:affiliation:string" style="text;strokeColor=none;fillColor=default;align=left;verticalAlign=middle;spacingLeft=4;spacingRight=4;overflow=hidden;points=[[0,0.5],[1,0.5]];portConstraint=eastwest;rotatable=0;whiteSpace=wrap;html=1;rounded=0;" vertex="1" parent="25">
                    <mxGeometry y="30" width="140" height="30" as="geometry"/>
                </mxCell>
                <mxCell id="38" value="pub:Keyword" style="swimlane;fontStyle=0;childLayout=stackLayout;horizontal=1;startSize=30;horizontalStack=0;resizeParent=1;resizeParentMax=0;resizeLast=0;collapsible=1;marginBottom=0;whiteSpace=wrap;html=1;rounded=0;fillColor=#14C9C0;fontColor=#333333;strokeColor=#666666;" vertex="1" parent="1">
                    <mxGeometry x="20" y="-320" width="140" height="60" as="geometry"/>
                </mxCell>
                <mxCell id="39" value="pub:keyword:string" style="text;strokeColor=none;fillColor=default;align=left;verticalAlign=middle;spacingLeft=4;spacingRight=4;overflow=hidden;points=[[0,0.5],[1,0.5]];portConstraint=eastwest;rotatable=0;whiteSpace=wrap;html=1;rounded=0;" vertex="1" parent="38">
                    <mxGeometry y="30" width="140" height="30" as="geometry"/>
                </mxCell>
                <mxCell id="45" value="" style="edgeStyle=none;html=1;exitX=0.999;exitY=0.057;exitDx=0;exitDy=0;entryX=0;entryY=0.25;entryDx=0;entryDy=0;exitPerimeter=0;rounded=0;" edge="1" parent="1" source="2" target="18">
                    <mxGeometry relative="1" as="geometry">
                        <mxPoint x="470" y="-310" as="sourcePoint"/>
                        <mxPoint x="570" y="-310" as="targetPoint"/>
                    </mxGeometry>
                </mxCell>
                <mxCell id="50" value="pub:hasTopic" style="edgeLabel;html=1;align=center;verticalAlign=middle;resizable=0;points=[];rounded=0;" vertex="1" connectable="0" parent="45">
                    <mxGeometry x="-0.0022" y="-1" relative="1" as="geometry">
                        <mxPoint y="-6" as="offset"/>
                    </mxGeometry>
                </mxCell>
            </root>
        </mxGraphModel>
    </diagram>
</mxfile>